<?xml version="1.0" encoding="utf-8"?>
<!-- Generator: Adobe Illustrator 26.0.0, SVG Export Plug-In . SVG Version: 6.00 Build 0)  -->
<svg version="1.1" id="Layer_1" xmlns="http://www.w3.org/2000/svg" xmlns:xlink="http://www.w3.org/1999/xlink" x="0px" y="0px"
	 viewBox="0 0 336.6 742.1" style="enable-background:new 0 0 336.6 742.1;" xml:space="preserve">
<style type="text/css">
	.st0{fill:none;stroke:#231F20;stroke-miterlimit:10;}
	.st1{fill:#FFFFFF;}
</style>
<path class="st0" d="M209.1,705.2l23.8,10.4c3.8,1.6,7.9,2.1,11.9,1.4l32.7-6l-30.7-11.2c-4.1-1.5-8.5-1.7-12.8-0.7l-25,6.3
	L1.9,416.4L0.5,0"/>
<path class="st0" d="M254.6,719.4l23.3-5.9l-15.3,18.8c-2.4,2.9-5.7,4.9-9.4,5.6l-18.9,3.5l10.8-15.5
	C247.5,722.7,250.8,720.4,254.6,719.4z"/>
<path class="st0" d="M278.6,708.8l-28-14c-5-2.5-8.9-6.6-11-11.7l-9.2-22.1l22.1,9c5.1,2.1,9.3,5.9,11.8,10.8L278.6,708.8z"/>
<path class="st0" d="M280.9,707.9l-11.7-34.6c-2.1-6.1-1.8-12.7,0.8-18.6l10.9-25.1l10.7,24.3c2.8,6.4,3.1,13.6,0.9,20.1
	L280.9,707.9z"/>
<path class="st0" d="M277.7,734.3h3.8c0.4,0,0.7-0.2,0.9-0.6l24.2-70.8c0.1-0.2,0-0.4-0.2-0.4c0,0-0.1,0-0.1,0h-3.8
	c-0.5,0-0.9,0.3-1.1,0.8l-24.1,70.4c-0.1,0.3,0,0.5,0.3,0.6C277.6,734.3,277.7,734.3,277.7,734.3z"/>
<path class="st0" d="M305.6,723.3l3.8,3.9c0.2,0.2,0.6,0.2,0.9,0l25.4-22.5c0.2-0.2,0.4-0.5,0.4-0.9v-3.7c0-0.4-0.2-0.7-0.4-1
	l-25.4-22.4c-0.3-0.3-0.7-0.2-1,0c0,0,0,0,0,0l-3.2,3.8c-0.3,0.3-0.2,0.8,0.1,1.1l22.7,20.2l-23.3,20.6
	C305.4,722.7,305.3,723.1,305.6,723.3C305.6,723.3,305.6,723.3,305.6,723.3z"/>
<path class="st1" d="M305.3,709.2"/>
</svg>
